<!DOCTYPE svg PUBLIC "-//W3C//DTD SVG 1.1//EN" "http://www.w3.org/Graphics/SVG/1.1/DTD/svg11.dtd">

<!-- Uploaded to: SVG Repo, www.svgrepo.com, Transformed by: SVG Repo Mixer Tools -->
<svg fill="#000000" width="800px" height="800px" viewBox="-2.4 -2.4 28.80 28.80" xmlns="http://www.w3.org/2000/svg" stroke="#000000" stroke-width="0.00024000000000000003" transform="rotate(0)">

<g id="SVGRepo_bgCarrier" stroke-width="0" transform="translate(0,0), scale(1)">

<!-- <rect x="-2.4" y="-2.4" width="28.80" height="28.80" rx="14.4" fill="#ee961b" strokewidth="0"/> -->

</g>

<g id="SVGRepo_tracerCarrier" stroke-linecap="round" stroke-linejoin="round" stroke="#CCCCCC" stroke-width="0.192"/>

<g id="SVGRepo_iconCarrier">

<path d="m18.988 2.012 3 3L19.701 7.3l-3-3zM8 16h3l7.287-7.287-3-3L8 13z"/>

<path d="M19 19H8.158c-.026 0-.053.01-.079.01-.033 0-.066-.009-.1-.01H5V5h6.847l2-2H5c-1.103 0-2 .896-2 2v14c0 1.104.897 2 2 2h14a2 2 0 0 0 2-2v-8.668l-2 2V19z"/>

</g>

</svg>